<svg width="24" height="24" viewBox="0 0 24 24" fill="none" xmlns="http://www.w3.org/2000/svg">
<path d="M21.103 9.998C21.226 10.657 21.293 11.346 21.293 12.065C21.293 17.689 17.529 21.688 11.844 21.688C10.5512 21.6884 9.27091 21.434 8.0764 20.9395C6.88189 20.4449 5.79654 19.7198 4.88236 18.8056C3.96818 17.8915 3.2431 16.8061 2.74853 15.6116C2.25396 14.4171 1.99961 13.1368 2 11.844C1.99961 10.5512 2.25396 9.27091 2.74853 8.0764C3.2431 6.88189 3.96818 5.79654 4.88236 4.88236C5.79654 3.96818 6.88189 3.2431 8.0764 2.74853C9.27091 2.25396 10.5512 1.99961 11.844 2C14.502 2 16.723 2.978 18.427 4.566L15.652 7.341V7.334C14.619 6.35 13.308 5.845 11.844 5.845C8.596 5.845 5.956 8.589 5.956 11.838C5.956 15.086 8.596 17.836 11.844 17.836C14.791 17.836 16.797 16.151 17.209 13.837H11.844V9.998H21.104H21.103Z" fill="white"/>
</svg>
