<svg width="24" height="24" viewBox="0 0 24 24" fill="none" xmlns="http://www.w3.org/2000/svg">
<path d="M20.61 19.1901C21.2367 18.35 21.6668 17.3799 21.8685 16.3515C22.0702 15.323 22.0383 14.2624 21.7753 13.2478C21.5123 12.2333 21.0249 11.2908 20.349 10.4898C19.673 9.68883 18.8259 9.04986 17.87 8.62005C17.6618 7.42215 17.1833 6.28747 16.4708 5.30222C15.7584 4.31697 14.8307 3.50708 13.7583 2.93408C12.686 2.36108 11.4971 2.04006 10.282 1.99539C9.06701 1.95073 7.85778 2.1836 6.74623 2.67631C5.63468 3.16903 4.65006 3.90863 3.86719 4.83891C3.08431 5.76918 2.52378 6.86567 2.22818 8.04505C1.93259 9.22443 1.9097 10.4557 2.16127 11.6452C2.41283 12.8348 2.93223 13.9513 3.67999 14.9101L2.28999 16.2901C2.15123 16.4307 2.05724 16.6093 2.01986 16.8032C1.98249 16.9972 2.00341 17.1979 2.07999 17.3801C2.15501 17.5627 2.28241 17.719 2.44613 17.8293C2.60985 17.9397 2.80257 17.9991 2.99999 18.0001H8.68999C9.25664 19.1947 10.15 20.2043 11.2667 20.9122C12.3834 21.6201 13.6778 21.9973 15 22.0001H21C21.1974 21.9991 21.3901 21.9397 21.5539 21.8293C21.7176 21.719 21.845 21.5627 21.92 21.3801C21.9966 21.1979 22.0175 20.9972 21.9801 20.8032C21.9427 20.6093 21.8487 20.4307 21.71 20.2901L20.61 19.1901ZM7.99999 15.0001C8.00136 15.3349 8.02811 15.6692 8.07999 16.0001H5.40999L5.75999 15.6601C5.85372 15.5671 5.92811 15.4565 5.97888 15.3346C6.02965 15.2128 6.05579 15.0821 6.05579 14.9501C6.05579 14.818 6.02965 14.6873 5.97888 14.5655C5.92811 14.4436 5.85372 14.333 5.75999 14.2401C5.19955 13.6858 4.75524 13.0253 4.45304 12.2973C4.15085 11.5693 3.99683 10.7883 3.99999 10.0001C3.99999 8.40875 4.63213 6.88263 5.75735 5.75741C6.88257 4.63219 8.40869 4.00005 9.99999 4.00005C11.2417 3.99259 12.4545 4.37444 13.4679 5.09192C14.4814 5.8094 15.2445 6.82643 15.65 8.00005C15.43 8.00005 15.22 8.00005 15 8.00005C13.1435 8.00005 11.363 8.73755 10.0502 10.0503C8.73749 11.3631 7.99999 13.1435 7.99999 15.0001ZM18.54 20.0001L18.59 20.0501H15C13.8433 20.048 12.7232 19.645 11.8303 18.9097C10.9375 18.1743 10.3272 17.1522 10.1034 16.0174C9.87961 14.8826 10.0562 13.7053 10.6031 12.6861C11.1499 11.6669 12.0333 10.8688 13.1025 10.4278C14.1718 9.98675 15.361 9.93011 16.4673 10.2675C17.5737 10.6049 18.5289 11.3154 19.1701 12.278C19.8114 13.2406 20.0991 14.3958 19.9842 15.5468C19.8693 16.6977 19.3589 17.7732 18.54 18.5901C18.3516 18.7747 18.2437 19.0263 18.24 19.2901C18.2405 19.4224 18.2673 19.5532 18.3188 19.6751C18.3703 19.797 18.4455 19.9074 18.54 20.0001V20.0001Z" fill="white"/>
</svg>
