<svg width="130" height="130" viewBox="0 0 130 130" fill="none" xmlns="http://www.w3.org/2000/svg">
<circle cx="65" cy="65" r="65" fill="white"/>
<path d="M58.2236 83.9997C57.7894 83.9983 57.3601 83.9076 56.9624 83.7333C56.5648 83.559 56.2072 83.3047 55.9119 82.9864L40.5219 66.6147C39.9466 66.0016 39.6385 65.1851 39.6652 64.3448C39.6919 63.5045 40.0513 62.7092 40.6644 62.1339C41.2775 61.5586 42.094 61.2504 42.9344 61.2771C43.7747 61.3038 44.57 61.6633 45.1453 62.2764L58.1919 76.178L84.8236 47.0447C85.0939 46.7082 85.4301 46.4304 85.8116 46.2286C86.1931 46.0267 86.6118 45.9049 87.0421 45.8708C87.4724 45.8366 87.9051 45.8908 88.3137 46.03C88.7223 46.1691 89.0981 46.3904 89.418 46.6801C89.738 46.9698 89.9954 47.3218 90.1743 47.7146C90.3533 48.1074 90.4501 48.5326 90.4587 48.9642C90.4673 49.3957 90.3876 49.8245 90.2245 50.2241C90.0615 50.6237 89.8184 50.9858 89.5103 51.288L60.5669 82.9547C60.2745 83.2788 59.9181 83.539 59.5203 83.7188C59.1225 83.8987 58.6918 83.9943 58.2553 83.9997H58.2236Z" fill="#698AFF"/>
</svg>
